<?xml version="1.0" encoding="utf-8"?>
<!-- Generator: Adobe Illustrator 20.1.0, SVG Export Plug-In . SVG Version: 6.00 Build 0)  -->
<svg version="1.1" xmlns="http://www.w3.org/2000/svg" xmlns:xlink="http://www.w3.org/1999/xlink" x="0px" y="0px"
	 viewBox="0 0 236.3 131" style="enable-background:new 0 0 236.3 131;" xml:space="preserve">
<style type="text/css">
	.st0{fill:#FFFFFF;}
	.st1{fill:#8E979D;stroke:#8E979D;stroke-width:0.3;}
	.st2{fill:#8E979D;}
	.st3{fill:#7A003C;stroke:#7A003C;stroke-width:0.3;}
	.st4{fill:#FEC057;stroke:#FEC057;stroke-width:0.3;}
</style>
<path class="st0" d="M203.9,130.8c-18.1-5.6-29.1-23.8-30.1-34.8c0-0.2,0-0.2,0-42.9v-0.9v-0.9v-0.9V50h0.3h0.9h0.9h0.9h27.8h0.1
	h27.8h0.9h0.9h0.9h0.3v0.3v0.9v0.9v0.9v42.7c-1,11.1-11.9,29.5-30,35.1l-0.9,0.2L203.9,130.8z"/>
<path class="st1" d="M47,41.5c-0.5-0.5-1.2-0.4-1.7-0.4c-0.1,0-0.1,0-0.2,0c-0.8,0-1.5-0.1-2-0.7c-0.6-0.8-0.6-3.3-0.6-4.4l0-0.2V8
	c0-0.2,0-0.5,0-0.8c0-1.2-0.1-3.2,0.4-3.9c0.3-0.5,1.2-0.4,1.8-0.4c0.2,0,0.3,0,0.4,0C46.9,3,47,1.9,47,1.4c0-0.4-0.1-0.7-0.4-0.9
	c-0.4-0.4-1-0.3-1.4-0.3c-0.1,0-0.3,0-0.4,0h-6.7c-0.7,0-1.5,0-2,1.2L24.3,32.2C22.3,26.8,13.7,2.5,13.7,2.6
	c-0.1-0.2-0.1-0.3-0.1-0.5c-0.3-0.9-0.5-1.9-1.8-1.9h-7c-0.1,0-0.2,0-0.4,0C4,0.2,3.4,0.1,3,0.5C2.8,0.7,2.7,1,2.7,1.4
	C2.7,1.9,2.8,3,4.5,3C5.9,3,6.7,3,7.1,3.4c0.4,0.4,0.4,1.3,0.3,3.1c0,0-1.9,29.8-1.9,29.8c-0.2,3.6-0.4,4.8-3.3,4.8
	c-1.7,0-2,0.8-2,1.3c0,0.6,0.2,1.2,1.4,1.2c0.9,0,1.8-0.1,2.6-0.1c0.9-0.1,1.8-0.1,2.7-0.1c0.9,0,1.8,0.1,2.7,0.1
	c0.9,0.1,1.8,0.1,2.7,0.1c0.5,0,1.7,0,1.7-1.2c0-0.3-0.1-0.6-0.3-0.8c-0.5-0.5-1.3-0.5-1.8-0.5h-0.1c-1.2,0-2.1-0.3-2.6-0.9
	C8,39,8.1,36.7,8.2,33.8L9.9,7.2c1.9,5.5,11.5,33.3,11.5,33.3l0,0.1c0.1,0.6,0.4,1.6,1.3,1.6c0.8,0,1-0.8,1.2-1.3
	c0-0.1,0-0.1,0.1-0.2L36.9,6.4v29.3l0,0.4c0,1.2,0,3.4-0.8,4.1c-0.6,0.5-1.7,0.9-2.5,0.9c-0.1,0-0.1,0-0.2,0c-0.5,0-1.3,0-1.7,0.4
	c-0.2,0.2-0.3,0.5-0.3,0.9c0,0.6,0.3,1.2,1.6,1.2c1.2,0,2.4-0.1,3.5-0.1c1.2-0.1,2.4-0.1,3.6-0.1c1,0,1.9,0.1,2.9,0.1
	c0.9,0.1,1.9,0.1,2.9,0.1c1.3,0,1.6-0.7,1.6-1.2C47.3,42,47.2,41.7,47,41.5z"/>
<path class="st1" d="M70.1,20.9c-1,0-1.7-1.2-2.6-2.8c-1.2-2.2-2.8-4.9-5.7-4.9c-2.2,0-4.6,1.4-6.1,2.8c-2.8,2.7-4.4,6.8-4.4,11
	c0,6.7,4.4,14,11.4,14c2.8,0,5.2-1,7-2.9c0,0,0.1-0.1,0.1-0.1c0.4-0.5,0.7-0.8,1.1-0.8c0.5,0,0.9,0.4,0.9,1c0,0.4-0.2,1.1-2,2.8
	c-2.6,2.3-5.9,3.6-9.5,3.6c-7.9,0-14.5-7.4-14.5-16.1c0-9.4,7.7-17.3,16.8-17.3c2.4,0,5.9,0.8,8,2.4c0.8,0.6,0.8,1.8,0.7,2.8
	c0,0.2,0,0.4,0,0.6c0,0.1,0,0.2,0,0.4c0.1,1.3,0.1,2.7-0.5,3.3C70.6,20.8,70.4,20.9,70.1,20.9z"/>
<path class="st1" d="M118.5,41.5c-0.5-0.5-1.2-0.4-1.7-0.4c-0.1,0-0.1,0-0.2,0c-0.8,0-1.5-0.1-2-0.7c-0.6-0.8-0.6-3.3-0.6-4.4l0-0.2
	V8c0-0.2,0-0.5,0-0.8c0-1.2-0.1-3.2,0.4-3.9c0.3-0.5,1.2-0.4,1.8-0.4c0.2,0,0.3,0,0.4,0c1.7,0,1.9-1.1,1.9-1.5
	c0-0.4-0.1-0.7-0.4-0.9c-0.4-0.4-1-0.3-1.4-0.3c-0.1,0-0.3,0-0.4,0h-6.7c-0.7,0-1.5,0-2,1.2L95.8,32.2C93.9,26.8,85.2,2.5,85.2,2.6
	c-0.1-0.2-0.1-0.3-0.1-0.5c-0.3-0.9-0.5-1.9-1.8-1.9h-7c-0.1,0-0.2,0-0.4,0c-0.5,0-1-0.1-1.4,0.3c-0.2,0.2-0.4,0.5-0.4,0.9
	C74.2,1.9,74.4,3,76,3c1.4,0,2.2,0.1,2.6,0.4C79,3.8,79,4.7,78.9,6.5c0,0-1.9,29.8-1.9,29.8c-0.2,3.6-0.4,4.8-3.3,4.8
	c-1.7,0-2,0.8-2,1.3c0,0.6,0.2,1.2,1.4,1.2c0.9,0,1.8-0.1,2.6-0.1c0.9-0.1,1.8-0.1,2.7-0.1c0.9,0,1.8,0.1,2.7,0.1
	c0.9,0.1,1.8,0.1,2.7,0.1c0.5,0,1.7,0,1.7-1.2c0-0.3-0.1-0.6-0.3-0.8c-0.5-0.5-1.3-0.5-1.8-0.5h-0.1c-1.2,0-2.1-0.3-2.6-0.9
	c-1.1-1.2-1.1-3.5-0.9-6.4l1.7-26.6c1.9,5.5,11.5,33.3,11.5,33.3l0,0.1c0.1,0.6,0.4,1.6,1.3,1.6c0.8,0,1-0.8,1.2-1.3
	c0-0.1,0-0.1,0.1-0.2l12.9-34.1v29.3l0,0.4c0,1.2,0,3.4-0.8,4.1c-0.6,0.5-1.7,0.9-2.5,0.9c-0.1,0-0.1,0-0.2,0c-0.5,0-1.3,0-1.7,0.4
	c-0.2,0.2-0.3,0.5-0.3,0.9c0,0.6,0.3,1.2,1.6,1.2c1.2,0,2.4-0.1,3.5-0.1c1.2-0.1,2.4-0.1,3.6-0.1c1,0,1.9,0.1,2.9,0.1
	c0.9,0.1,1.9,0.1,2.9,0.1c1.3,0,1.6-0.7,1.6-1.2C118.9,42,118.8,41.7,118.5,41.5z"/>
<path class="st1" d="M132.9,25.8c2.1-1.1,2.1-1.1,2.1-3.6v-3.1c0-3.7-0.2-5.9-3.7-5.9c-3.3,0-5.3,1.6-6.9,5.6c0,0-0.1,0.3-0.1,0.3
	c-0.4,0.9-0.8,1.9-1.8,2.4c-0.6,0.4-2,1-2.9,1c-0.8,0-1.2-0.4-1.2-1.3c0-2,1.5-4.1,2.8-5.3c3.1-3.1,7.5-5,11.7-5
	c2.8,0,4.8,0.7,6.1,2c1.4,1.3,1.4,3,1.4,4.7l0,0.7V35v0.1c0,1.1,0,3.8,1,4.7c0.2,0.2,0.5,0.3,0.8,0.3c0.8,0,1.4-0.6,1.8-1.1
	c0.3-0.4,0.6-0.7,1-0.7c0.5,0,0.9,0.4,0.9,1c0,0.9-1,1.9-1.6,2.4l-0.1,0.1c-1.3,1-3,2.1-4.8,2.1c-2.3,0-3.2-2.3-3.8-3.8
	c-0.2-0.4-0.4-1-0.6-1.1c0,0,0,0,0.1,0c0.1,0,0.1,0,0.1,0c-0.1,0.1-0.5,0.4-0.8,0.7c-1.7,1.5-5.2,4.6-9.5,4.6
	c-3.1,0-6.3-2.1-6.3-5.9c0-5,5.5-8,9.2-10l0.4-0.2C128,28.3,132.9,25.8,132.9,25.8z M128.7,30.5c-2.5,1.4-4.8,3.1-4.8,6.2
	c0,2.7,2.1,3.7,4,3.7c2,0,4.1-1,5.6-2.7c1.4-1.6,1.5-2.7,1.5-5v-4.2c0,0,0-0.1,0-0.2c0.1-1.1-0.1-1.3-0.1-1.4c0,0,0,0,0.1,0
	c0,0,0,0,0,0c-0.1,0-0.2,0.1-0.3,0.1c-0.1,0-0.2,0.1-0.3,0.1l0.1,0C134.5,27.2,128.7,30.5,128.7,30.5z"/>
<path class="st1" d="M147,34.7l0-0.1c0.1-0.6,0.2-1.8,1.2-1.8c1.1,0,1.4,1.4,1.7,2.9c0.5,2.8,1.3,6.7,6.6,6.7c3.5,0,7.3-2.3,7.3-6.5
	c0-3.9-3-5.3-5.8-6.3c0,0-0.6-0.2-0.6-0.2c-4-1.4-9.4-3.3-9.4-9c0-2.7,1.2-5,3.5-6.9c2-1.6,4.6-2.4,7.7-2.4c1.6,0,5.1,0.5,6.7,1.2
	c1.1,0.6,1,1.9,1,2.9c0,0.2,0,0.5,0,0.7c0,0,0,0.2,0,0.3c0.1,1.3,0.2,2.6-0.4,3.2c-0.2,0.2-0.4,0.3-0.7,0.3c-0.8,0-1.1-0.8-1.5-1.9
	c-0.8-2-1.8-4.7-6.2-4.7c-2.2,0-5.4,1.7-5.4,4.8c0,3.5,3.1,4.6,6.7,6c4.3,1.6,9.2,3.5,9.2,9.9c0,7.4-7.3,10.7-12.4,10.7
	c-2.2,0-6-0.9-8.3-2.2c-1.1-0.5-1.1-1.6-1.1-2.6l0-0.3C146.8,39.4,147,34.7,147,34.7z"/>
<path class="st1" d="M186.3,39.4c0-0.4-0.4-0.9-0.9-0.9c-0.3,0-0.6,0.2-1.1,0.7c-0.8,0.7-2,1.8-3.5,1.8c-0.8,0-1.4-0.2-1.9-0.7
	c-1.4-1.4-1.4-4.8-1.4-7v-0.1V15.3c0-0.7,0.1-0.9,0.2-1c0.2-0.2,0.5-0.1,1-0.1c0.2,0,0.4,0,0.7,0h3.5c0.3,0,0.5,0,0.7,0
	c0.6,0,1,0.1,1.3-0.3c0.3-0.3,0.4-0.8,0.4-1.3c0-0.5,0-1.4-1-1.4c0,0-6.3,0-6.2,0c-0.5,0-0.6-0.1-0.6-1v-5c0-1-0.5-1.3-0.9-1.3
	c-0.6,0-0.9,0.6-1,0.9c-1.4,3.3-3.1,5-5.9,6.9c0,0-0.1,0.1-0.1,0.1c-0.3,0.3-0.8,0.6-0.8,1.2c0,0.3,0.1,0.5,0.3,0.7
	c0.4,0.4,1.2,0.4,1.9,0.3c0.1,0,0.2,0,0.2,0c0.1,0,0.3,0,0.4,0c0.3,0,0.6,0,0.6,0c0,0,0.1,0.2,0.1,0.8v18.1l0,1c0,2.7-0.1,5.8,1.5,8
	c1.1,1.5,2.9,2.3,4.9,2.3c2.2,0,4.4-1,6.2-2.7C185.3,41.4,186.3,40.4,186.3,39.4z"/>
<path class="st1" d="M212.7,36c-0.4,0-0.7,0.3-1.3,0.9c-1.3,1.3-3.7,3.6-8,3.6c-7.8,0-11.8-7.2-11.8-14.3c0-0.9,0.1-1.3,0.3-1.5
	c0.2-0.2,0.8-0.2,1.6-0.2l0.3,0h19.2c0.4,0,1.2-0.2,1.2-1.6c0-2.4-1-5.5-2.3-7.3c-2.1-2.9-5.6-4.5-9.4-4.5c-4.4,0-8.4,1.7-11.7,4.8
	c-3.2,3.1-4.6,6.8-4.6,12c0,9.3,6.5,16.6,14.8,16.6c4.1,0,7.3-1.2,10.3-4.1l0,0c1.8-1.7,2.6-2.7,2.6-3.4
	C213.7,36.4,213.3,36,212.7,36z M193.6,17.7c1.8-2.8,4.8-4.5,7.9-4.5c1.6,0,3.7,0.4,5.2,2c0.9,1.1,1.5,2.6,1.5,3.8
	c0,1.3-0.6,2-2,2.4c-1.8,0.5-5.3,0.5-7.2,0.5h-5.1c-0.1,0-0.2,0-0.3,0c-0.4,0-1.1,0-1.3-0.2c0,0-0.1-0.1-0.1-0.3
	C192,20.5,193,18.5,193.6,17.7z"/>
<path class="st1" d="M232.1,11.4c-3.4,0-5.6,3.1-6.9,4.7c-0.2,0.2-0.4,0.5-0.5,0.7c0-0.1,0-0.4,0-0.7c0-0.1,0-0.1,0-0.2v-3.4l0-0.1
	c0-0.3,0-0.8-0.3-1.1c-0.1-0.1-0.3-0.3-0.7-0.3c-0.6,0-1,0.5-1.3,0.8c-0.1,0.1-0.1,0.2-0.2,0.2c-1,1.3-3.6,3-5.1,3.5
	c-0.1,0-0.2,0.1-0.3,0.1c-0.6,0.2-1.5,0.5-1.5,1.5c0,0.6,0.5,1,1.2,1h0.8c0.7,0,1.3,0.2,1.5,0.4c0.5,0.6,0.5,3.1,0.5,4l0,0.2V36
	c0,0.4,0,0.8,0,1.1c0.1,2.6,0,3.9-2.5,4.2c-0.1,0-0.2,0-0.3,0c-0.6,0-1.8,0.1-1.8,1.4c0,0.7,0.5,1.1,1.3,1.1c1,0,2-0.1,3-0.1
	c1-0.1,2-0.1,3-0.1c0.9,0,1.9,0,2.8,0.1c1,0.1,2.1,0.1,3.1,0.1c0.7,0,1.2-0.5,1.2-1.2c0-1.2-1.2-1.3-1.9-1.3c-0.1,0-0.2,0-0.3,0
	c-2.5-0.3-2.6-1.5-2.5-4.2c0-0.4,0-0.7,0-1.1V24.9v-0.3c0-2.6,0-4.3,1.4-6.5c0.7-0.9,1.7-2.4,2.9-2.4c0.6,0,1,0.4,1.5,1.1
	c0.6,0.7,1.2,1.6,2.6,1.6c1.8,0,3.1-1.3,3.1-3.2C236.1,13.1,234.3,11.4,232.1,11.4z"/>
<path class="st1" d="M20.9,57.7l0-0.2c0-0.9,0-3-0.4-3.6c-0.3-0.7-1-0.7-1.8-0.7h-0.1c-0.3,0-0.8,0-1.1-0.3
	c-0.1-0.1-0.3-0.3-0.3-0.6c0-0.3,0.1-0.5,0.3-0.7c0.2-0.2,0.5-0.3,0.9-0.3c0.6,0,1.1,0,1.7,0.1c0.5,0,1.1,0.1,1.6,0.1
	c0.5,0,0.9,0,1.4-0.1c0.5,0,1-0.1,1.5-0.1c1.1,0,1.2,0.7,1.2,0.9c0,0.7-0.5,1-1.6,1c-1.4,0-1.4,0.7-1.5,2.4c0,0.2,0,0.4,0,0.7
	c0,0,0,12.7,0,12.7c0,2.5,0,4.7-2.1,6.8c-1.6,1.5-4,2.3-7.2,2.3c-1.7,0-5-0.3-7.1-2C4,74.2,4,71.8,4,69.2v-0.2V56.1l0-0.5
	c0-1.1,0-1.8-0.3-2.1c-0.2-0.2-0.8-0.3-1.7-0.3c-0.9,0-1.3-0.3-1.3-0.9c0-0.3,0.1-0.5,0.3-0.7c0.2-0.2,0.4-0.3,0.8-0.3
	c0.7,0,1.4,0,2.1,0.1c0.7,0,1.3,0.1,2,0.1c0.7,0,1.4,0,2.1-0.1c0.7,0,1.4-0.1,2.1-0.1c0.6,0,1,0.4,1,1c0,0.6-0.5,0.9-1.4,0.9
	c-0.9,0-1.4,0.1-1.7,0.3c-0.3,0.3-0.3,1-0.3,2.1l0,0.5v11.5l0,0.4c0,1.7,0,4.4,0.7,5.7C9.7,76,13,76.1,14,76.1c1.4,0,4-0.3,5.6-2.1
	c1.2-1.4,1.2-3.1,1.2-5v-0.2V57.7z"/>
<path class="st1" d="M45.1,75.9c-0.1,0-0.1,0-0.2,0c-1.3-0.1-1.3-0.7-1.3-2.3c0-0.2,0-0.4,0-0.7v-6.5l0-0.3c0-1.9,0-3.9-1.2-5.6
	c-1.1-1.6-2.7-2.4-4.7-2.4c-2.5,0-4.3,1.7-5.4,2.7c-0.1,0.1-0.2,0.2-0.2,0.2v-1.9l0-0.1c0-0.2,0-0.6-0.2-0.8
	c-0.1-0.1-0.3-0.2-0.5-0.2c-0.4,0-0.7,0.3-0.9,0.5c0,0-0.1,0.1-0.1,0.1c-0.5,0.7-2.1,1.7-2.9,2c0,0-0.1,0-0.1,0c-0.3,0.1-1,0.3-1,1
	c0,0.4,0.3,0.7,0.9,0.7h0.5c0.4,0,0.7,0.1,0.8,0.2c0.1,0.1,0.3,0.6,0.3,2.2v0.1v7.7c0,0.2,0,0.5,0,0.7c0,1.6,0,2.1-1.3,2.3
	c-0.1,0-0.1,0-0.2,0c-0.4,0-1.2,0.1-1.2,1c0,0.4,0.2,0.8,0.9,0.8c0.6,0,1.2,0,1.7-0.1c0.6,0,1.2-0.1,1.7-0.1c0.5,0,1.1,0,1.6,0.1
	c0.6,0,1.2,0.1,1.8,0.1c0.5,0,0.9-0.3,0.9-0.9c0-0.8-0.9-0.9-1.2-0.9c-0.1,0-0.1,0-0.2,0c-1.3-0.1-1.3-0.7-1.3-2.3
	c0-0.2,0-0.4,0-0.7v-6.9c0-1.6,0.1-2.4,1.1-3.5c0.9-1,2.1-1.6,3.3-1.6c1.3,0,2.5,0.6,3.1,1.6c0.6,1,0.6,2.6,0.6,3.8v6.5
	c0,0.2,0,0.5,0,0.7c0,1.6,0,2.1-1.3,2.3c-0.1,0-0.1,0-0.2,0c-0.4,0-1.2,0.1-1.2,1c0,0.4,0.2,0.8,0.9,0.8c0.6,0,1.2,0,1.8-0.1
	c0.6,0,1.2-0.1,1.7-0.1c0.5,0,1.1,0,1.6,0.1c0.6,0,1.2,0.1,1.8,0.1c0.5,0,0.9-0.3,0.9-0.9C46.3,76,45.5,75.9,45.1,75.9z"/>
<path class="st1" d="M50.5,53.1c0-1.4,0.9-2.5,2.1-2.5c1.2,0,2,1.2,2,2.4c0,1.5-0.8,2.5-2,2.5C51.3,55.5,50.5,54.5,50.5,53.1z
	 M54.2,72.9c0,0.2,0,0.5,0,0.7c0,1.6,0,2.1,1.3,2.3c0,0,0.1,0,0.2,0c0.4,0,1.2,0.1,1.2,0.9c0,0.5-0.3,0.9-0.9,0.9
	c-0.6,0-1.2,0-1.8-0.1c-0.6,0-1.1-0.1-1.6-0.1c-0.6,0-1.2,0-1.7,0.1c-0.6,0-1.2,0.1-1.7,0.1c-0.7,0-0.9-0.4-0.9-0.8
	c0-0.9,0.9-1,1.2-1c0.1,0,0.1,0,0.2,0c1.3-0.1,1.3-0.7,1.3-2.3c0-0.2,0-0.4,0-0.7v-7.7l0-0.1c0-1.6-0.1-2.1-0.3-2.2
	c-0.1-0.1-0.3-0.2-0.8-0.2h-0.5c-0.5,0-0.9-0.3-0.9-0.7c0-0.7,0.6-0.9,1-1c0.1,0,0.1,0,0.1,0c0.8-0.3,2.3-1.3,2.9-2
	c0.1-0.1,0.1-0.1,0.1-0.1c0.2-0.2,0.4-0.5,0.9-0.5c0.3,0,0.4,0.1,0.5,0.2c0.2,0.2,0.2,0.6,0.2,0.8l0,0.1V72.9z"/>
<path class="st1" d="M76.5,58.9c-0.2-0.2-0.4-0.2-0.6-0.2c0,0-0.1,0-0.1,0h-5.4c-0.2,0-1,0-1,0.8c0,0.9,1.1,0.9,1.4,0.9
	c0.2,0,1,0,1,0.7c0,0.3-0.2,0.9-0.3,1.3c0,0.1-0.1,0.2-0.1,0.3c0,0-2.8,6.9-3.9,9.6c-0.9-2.6-3.4-9.2-3.4-9.2L64,62.9
	c-0.2-0.4-0.5-1.4-0.5-1.8c0-0.6,0.6-0.7,0.9-0.7c0,0,0.1,0,0.1,0c0.3,0,0.8,0,1.1-0.2c0.1-0.1,0.2-0.3,0.2-0.5
	c0-0.3-0.1-0.5-0.2-0.6c-0.2-0.2-0.6-0.2-0.8-0.2l-0.1,0h-6.6l-0.1,0c-0.2,0-0.5,0-0.7,0.2c-0.1,0.1-0.2,0.3-0.2,0.6
	c0,0.6,0.4,0.9,1.1,0.9c1.2,0.1,1.3,0.5,1.8,1.8c0,0,0.1,0.3,0.1,0.3c0,0,5.3,14.3,5.3,14.3l0.2,0.5c0.1,0.4,0.4,0.7,0.7,0.7
	c0.5,0,0.8-0.6,0.9-1c0,0,0-0.1,0-0.1l0,0l0,0c0,0,5.3-12.7,5.3-12.7c0.1-0.2,0.2-0.4,0.2-0.6c0.6-1.4,1.2-3,2.5-3.2
	c0,0,0.1,0,0.1,0c0.3,0,1.2-0.1,1.2-0.9C76.7,59.3,76.7,59.1,76.5,58.9z"/>
<path class="st1" d="M92.6,72.7c-0.3,0-0.5,0.2-0.9,0.6c-0.7,0.7-2.1,2.1-4.5,2.1c-4.4,0-6.7-4.1-6.7-8.2c0-0.6,0.1-0.7,0.1-0.8
	c0.1-0.1,0.4-0.1,0.8-0.1l0.2,0h11.1c0.2,0,0.9-0.1,0.9-1.1c0-1.4-0.6-3.3-1.4-4.4c-1.3-1.7-3.3-2.7-5.6-2.7c-2.6,0-5,1-6.9,2.8
	c-1.9,1.8-2.8,4-2.8,7.1c0,5.5,3.9,9.8,8.8,9.8c2.5,0,4.3-0.7,6.1-2.4c1.4-1.3,1.5-1.8,1.5-2.1C93.3,73.1,93,72.7,92.6,72.7z
	 M81.6,62.3c1-1.6,2.7-2.5,4.4-2.5c0.9,0,2.1,0.2,2.9,1.1c0.5,0.6,0.9,1.5,0.9,2.1c0,0.7-0.3,1-1,1.2c-1,0.3-3,0.3-4.2,0.3h-3
	c-0.1,0-0.1,0-0.2,0c-0.1,0-0.6,0-0.6-0.1c0,0,0,0,0-0.1C80.7,63.9,81.3,62.8,81.6,62.3z"/>
<path class="st1" d="M105.7,58.4c-2,0-3.4,1.8-4.1,2.8v-2l0-0.1c0-0.2,0-0.6-0.2-0.8c-0.1-0.1-0.3-0.2-0.5-0.2
	c-0.4,0-0.7,0.3-0.9,0.5c0,0-0.1,0.1-0.1,0.1c-0.5,0.7-2.1,1.7-2.9,2c0,0-0.1,0-0.1,0c-0.3,0.1-1,0.3-1,1c0,0.4,0.3,0.7,0.9,0.7h0.5
	c0.4,0,0.7,0.1,0.8,0.2c0.1,0.1,0.3,0.6,0.3,2.2l0,0.1v7.7c0,0.2,0,0.5,0,0.7c0,1.6,0,2.1-1.3,2.3c-0.1,0-0.1,0-0.2,0
	c-0.4,0-1.2,0.1-1.2,1c0,0.4,0.2,0.8,0.9,0.8c0.6,0,1.2,0,1.7-0.1c0.6,0,1.2-0.1,1.7-0.1c0.5,0,1.1,0,1.6,0.1c0.6,0,1.2,0.1,1.8,0.1
	c0.5,0,0.9-0.3,0.9-0.9c0-0.8-0.9-0.9-1.2-0.9c-0.1,0-0.1,0-0.2,0c-1.3-0.1-1.3-0.7-1.3-2.3c0-0.2,0-0.4,0-0.7v-6.5v-0.2
	c0-1.5,0-2.4,0.8-3.7c0.4-0.5,0.9-1.3,1.5-1.3c0.3,0,0.4,0.2,0.7,0.6c0.3,0.4,0.8,1,1.6,1c1.2,0,2-0.8,2-2.1
	C108.2,59.5,107.1,58.4,105.7,58.4z"/>
<path class="st1" d="M109.8,72.1L109.8,72.1c0-0.4,0.1-1.3,0.9-1.3c0.8,0,1,0.9,1.1,1.8c0.3,1.7,0.7,3.8,3.7,3.8
	c2,0,4.1-1.3,4.1-3.6c0-1.9-1.3-2.8-3.3-3.5c0,0-0.3-0.1-0.3-0.1c-2.4-0.8-5.6-2-5.6-5.4c0-1.6,0.7-3,2.1-4.1c1.2-1,2.7-1.4,4.6-1.4
	c1,0,3,0.3,4,0.7c0.8,0.4,0.7,1.2,0.7,1.9c0,0.1,0,0.3,0,0.4c0,0,0,0.1,0,0.2c0.1,0.8,0.1,1.6-0.3,2c-0.1,0.1-0.3,0.2-0.5,0.2
	c-0.6,0-0.8-0.6-1.1-1.2c-0.4-1.1-1-2.6-3.4-2.6c-1.2,0-3,0.9-3,2.6c0,1.9,1.7,2.6,3.8,3.3c2.6,1,5.5,2.1,5.5,6c0,4-3.8,6.4-7.4,6.4
	c-1.3,0-3.5-0.5-4.9-1.3c-0.7-0.4-0.7-1-0.7-1.6l0-0.2C109.6,74.9,109.8,72.1,109.8,72.1z"/>
<g>
	<path class="st1" d="M129.7,55.5c1.2,0,2-1,2-2.5c0-1.2-0.7-2.4-2-2.4c-1.2,0-2.1,1.1-2.1,2.5C127.7,54.5,128.5,55.5,129.7,55.5z"
		/>
	<path class="st1" d="M132.8,75.9c-0.1,0-0.1,0-0.2,0c-1.3-0.1-1.3-0.7-1.3-2.3c0-0.2,0-0.4,0-0.7V59.3l0-0.1c0-0.2,0-0.6-0.2-0.8
		c-0.1-0.1-0.3-0.2-0.5-0.2c-0.4,0-0.7,0.3-0.9,0.5c0,0-0.1,0.1-0.1,0.1c-0.5,0.7-2.1,1.7-2.9,2c0,0-0.1,0-0.1,0c-0.3,0.1-1,0.3-1,1
		c0,0.4,0.3,0.7,0.9,0.7h0.5c0.4,0,0.7,0.1,0.8,0.2c0.1,0.1,0.3,0.6,0.3,2.2l0,0.1v7.7c0,0.2,0,0.5,0,0.7c0,1.6,0,2.1-1.3,2.3
		c-0.1,0-0.1,0-0.2,0c-0.4,0-1.2,0.1-1.2,1c0,0.4,0.2,0.8,0.9,0.8c0.6,0,1.2,0,1.7-0.1c0.6,0,1.2-0.1,1.7-0.1c0.5,0,1.1,0,1.6,0.1
		c0.6,0,1.2,0.1,1.8,0.1c0.5,0,0.9-0.3,0.9-0.9C134.1,76,133.2,75.9,132.8,75.9z"/>
</g>
<path class="st1" d="M145.1,74.9c0-0.3-0.3-0.7-0.7-0.7c-0.3,0-0.4,0.2-0.8,0.4c-0.4,0.4-1.1,1-1.9,1c-0.4,0-0.7-0.1-1-0.4
	c-0.8-0.8-0.8-2.7-0.8-3.9v-0.1V60.8c0-0.4,0.1-0.5,0.1-0.5c0.1,0,0.3,0,0.5,0c0.1,0,0.3,0,0.4,0h2.1c0.1,0,0.3,0,0.4,0
	c0.4,0,0.7,0,0.9-0.2c0.2-0.2,0.3-0.6,0.3-0.9c0-0.3,0-1-0.8-1c0,0-3.6,0-3.6,0c-0.1,0-0.2,0-0.2,0c0,0,0-0.1,0-0.4V55
	c0-0.8-0.5-0.9-0.7-0.9c-0.5,0-0.7,0.5-0.8,0.6c-0.8,1.9-1.8,2.8-3.4,4c0,0-0.1,0-0.1,0.1c-0.2,0.2-0.5,0.4-0.5,0.9
	c0,0.2,0.1,0.4,0.2,0.5c0.3,0.3,0.8,0.3,1.2,0.2c0,0,0.1,0,0.1,0c0.1,0,0.2,0,0.2,0c0.1,0,0.2,0,0.2,0c0,0.1,0,0.1,0,0.3v10.6l0,0.6
	c0,1.6,0,3.4,0.9,4.8c0.7,0.9,1.8,1.4,3,1.4c1.3,0,2.6-0.6,3.7-1.7C144.5,76.1,145.1,75.5,145.1,74.9z"/>
<path class="st1" d="M164.5,58.7h-5.8c-0.5,0-0.9,0.4-0.9,0.9c0,0.7,0.9,0.7,1.3,0.7c1,0,1.5,0.4,1.5,1.1c0,0.4-0.3,1.1-0.5,1.5
	l0,0.1c0,0-2.7,7-3.7,9.7c-1-2.7-3.7-9.9-3.7-9.9l0-0.1c-0.2-0.5-0.4-1-0.4-1.4c0-0.8,1.3-0.8,1.5-0.8c0.9,0,1.3-0.2,1.3-0.7
	c0-0.6-0.5-0.9-0.9-0.9h-7.1c-0.7,0-1.1,0.4-1.1,0.9c0,0.7,0.9,0.7,1.3,0.7c0.9,0,1.3,0.9,1.8,2.2c0,0,0.2,0.4,0.2,0.4
	c0,0,4.8,12.8,4.8,12.7c0,0.1,0.1,0.3,0.2,0.4c0.2,0.4,0.3,0.8,0.3,1.2c0,0.3-0.1,0.5-0.2,0.8c0,0.1-0.1,0.2-0.1,0.2
	c0,0-1.2,3.2-1.2,3.2c0,0.1-0.1,0.2-0.1,0.3c-0.2,0.5-0.3,0.8-0.6,0.9c-0.4,0.1-0.8,0.1-1.2,0.1l-0.3,0c-1.6,0-1.6,1.4-1.6,2
	c0,0.5,0.1,0.9,0.4,1.2c0.5,0.5,1.3,0.5,2,0.5h0.1c1.6,0,1.8-0.4,2.2-1.8c0,0,0-0.1,0-0.1c0,0,7.4-19.4,7.4-19.4
	c0.3-0.8,1.3-3.3,2-4.3c0.3-0.5,1-0.7,1.3-0.8c0,0,0.1,0,0.2,0c0.4,0,1-0.1,1-0.6C165.5,59.1,165.1,58.7,164.5,58.7z"/>
<path class="st2" d="M233.9,51.6h-0.3h-0.9h-27.8h-0.1h-27.8H176h-0.3h-0.3v0.3v0.3v0.9c0,28.3,0,42.7,0,42.7
	c0.9,10.5,11.5,28,29,33.4l0.3,0.1l0.1,0l0.1,0l0.1,0l0.1,0l0.3-0.1c17.4-5.4,28-22.9,28.9-33.6V53.2v-0.9v-0.3v-0.3H233.9z"/>
<path class="st3" d="M204.9,57.6h9.8v9.2h-8c0,0-0.6-1.3-1.8-1.3c-1.1,0-1.8,1.3-1.8,1.3h-8v-9.2H204.9"/>
<g>
	<path class="st4" d="M204.7,69.1h27.9v26.7c-0.8,9.2-10.4,26.7-27.8,32.1c-17.5-5.4-27.1-22.9-27.9-32.1V69.1h27.9H204.7z"/>
	<path class="st4" d="M186.1,66.6h0.7c-0.2-0.1-0.6-0.3-0.6-1c0-1,0.2-1.8,0.2-1.8l2.4,0.2l-0.5-0.8l2.5-2.4l-0.7-0.2l0.4-1.7
		l-1.6,0.3l-0.3-0.8l-1.1,1.2l0.3-2.9l-0.9,0.7l-1.1-2.1l0,0l-1.1,2.1l-0.9-0.7l0.3,2.9l-1.1-1.2l-0.3,0.8l-1.6-0.3l0.4,1.7
		l-0.7,0.2l2.5,2.4l-0.5,0.8l2.4-0.2c0,0,0.3,0.8,0.2,1.8c0,0.7-0.4,0.9-0.6,1H186.1z"/>
	<path class="st4" d="M223.3,66.6h-0.7c0.2-0.1,0.6-0.3,0.6-1c0-1-0.2-1.8-0.2-1.8l-2.4,0.2l0.5-0.8l-2.5-2.4l0.7-0.2l-0.4-1.7
		l1.6,0.3l0.3-0.8l1.1,1.2l-0.3-2.9l0.9,0.7l1.1-2.1l0,0l1.1,2.1l0.9-0.7l-0.3,2.9l1.1-1.2l0.3,0.8l1.6-0.3l-0.4,1.7l0.7,0.2
		l-2.5,2.4l0.5,0.8l-2.4-0.2c0,0-0.3,0.8-0.2,1.8c0,0.7,0.4,0.9,0.6,1H223.3z"/>
	<path class="st4" d="M204.9,64.6c1.1-1.2,4.2,0.7,5.2,0.8c0.5,0.1,2.9,0,2.9,0v-9.2l-1.2,0c0,0-1.7,0.1-2.6-0.3
		c-0.9-0.4-3.2-1.2-4.3,0.4c-1.1-1.6-3.4-0.8-4.3-0.4c-0.9,0.4-2.6,0.3-2.6,0.3l-1.2,0v9.2c0,0,2.4,0,2.9,0
		C200.7,65.3,203.8,63.5,204.9,64.6z"/>
</g>
<path class="st3" d="M204.6,64.4c0.1,0.1,0.2,0.1,0.3,0.2c0.1-0.1,0.2-0.2,0.3-0.2l0-8.4c-0.1,0.1-0.2,0.3-0.3,0.4
	c-0.1-0.1-0.2-0.3-0.3-0.4V64.4z"/>
<path class="st3" d="M201,80.5c0,0,2.8,0.2,3.1-2.2c0,0,0.2,1.8,0.8,1.8c0.6,0,0.6-1.9,0.6-1.9c1,2.6,3.4,2.8,3.4,2.8
	c-2.1-1.4-1.9-5.2-1.9-5.5c0.1-1.9,1.8-1.7,1.9-2.8c0.2-1.6-1.7-1.2-1.7-1.2s0.8,0,0.9,0.4c0.3,0.9-1.2,1-1.2,1
	c-1.9,0.5-2.5-0.6-3.2-0.7c-0.7-0.1-0.8,0.3-0.9,0.5c-0.1,0.2-3,0.3-3.6,1c-0.7,0.7-0.6,1.6-0.1,2.1c0,0,0.3-1,1.4-1.1
	c1.1,0,2.9,1.4,3.3,2.2c-0.5,0-4.6,0.3-5.1-0.1c-0.3-0.2-0.7-0.8-0.7-1.1c0,0-0.2,1.1,0.3,1.4c0.5,0.3,0.6,0.3,0.9,0.3
	c0.3,0,4.3-0.1,4.7-0.1c-0.1,0.3,0,1.1-0.9,1.1h-3.3c0,0-0.1,0.8,1.2,0.5c0.3-0.1,1.1-0.3,1.4,0.2C202.3,79.2,202.9,80.2,201,80.5z"
	/>
<path class="st3" d="M203.1,109.1c-1.2,0.8-3.1,0.1-3.1,0.1s0,0.5-1.7,1.3c-2.7,1.1-5.5,3.9-1.8,8c0,0-1.5-4.7,0.8-5.8c0,0,2,2,5-2
	C202.8,110.1,203.1,109.1,203.1,109.1z"/>
<path class="st3" d="M196.5,92.7c-0.1,1.2-0.3,1.3-1.4,1.8c0,0-0.4-0.4-0.6-0.8c-0.7-1.3,0.5-3.3,0.5-3.3c-1.3,1.5-3.1,1-3.1,1
	c0.1-1.3,1.9-2.5,1.9-2.5c-1.6,0.3-2.9-0.6-2.9-0.6c0.5-0.9,2.2-1.9,2.2-1.9c-1.7-0.1-2.8-1.1-2.8-1.1c0.5-0.7,2.4-1.6,2.4-1.6
	c-0.9-0.5-1.8-2.1-1.8-2.1c1.3-0.7,2.7-0.5,2.7-0.5c-2.3-1.7,0.2-6.4,0.2-6.4c-0.4,7,5.1,5.2,4.7,8.8c-0.3,3-3.6,0.8-3.6,0.8
	c-0.6,4.1,1.8,4.5,1.8,4.5s-0.1,1-0.2,2C196.4,92,196.5,92.1,196.5,92.7z"/>
<path class="st3" d="M189.3,102.9c7.5-0.2,8.8-5.9,8.8-5.9c-0.7-1.1-0.8-1.6-0.8-1.6s-0.1-0.3-0.1-0.3c-0.5,0.5-2.4,1.2-2.4,1.2
	s-1.1-0.9-1.4-1.3c-0.7-1-0.8-1.8-0.8-1.8c-1.3,0-2.4-1.1-2.4-1.1c-0.1-1.2,0.4-2.1,0.4-2.1c-0.9-0.4-1.8-1.3-1.8-1.3
	c0.6-1.3,1-1.7,1-1.7c-1.4-1.1-1.5-1.8-1.5-1.8c0.4-1,1.7-1.9,1.7-1.9c-0.6-0.8-1.1-2.2-1.1-2.2c1-1,2-1.4,2-1.4
	c-0.2-0.6-0.1-1.2-0.1-1.8c0,0-8.6-4.5-9.5-7.4c0,0-0.4,2.6-0.2,4.2c0.1,1.5,2.4,3.9,7.9,7.6c-3.4-0.5-8-2.3-9-4.2
	c0,0,0,2.6,0.6,4.2c0.5,1.3,2.9,2.2,8.3,4.8c-2.7,1.5-7.4-0.2-8.8-1.5c0,0,0.8,2.3,1.6,3.7c0.6,0.9,2.8,2.4,8,1.6
	c-1.9,2.4-5.6,4.2-8.2,3.1c0,0,0.3,2.3,1.8,3c1.1,0.5,3.5,0.8,7.3-2.1c-2.3,5.7-7.9,3.9-7.9,3.9s1.3,2.3,2.8,3
	c1.3,0.7,4,0.1,8.4-4.6C193.9,97.3,193.6,101.5,189.3,102.9z"/>
<path class="st3" d="M199,98.6c0,0,1.5,2.1,1.9,3.4c0,0-2.9,2.5-2.4,5.3c0,0-1-2-0.3-3.5c0.1-0.1,0.4-1,0.4-1s-2.5,1.2-4.2,0.3
	c0,0,1.8,0.2,3.8-2.9C199.2,98.5,199,98.6,199,98.6z"/>
<path class="st3" d="M189.3,107.1c-0.3,0-1.7-0.5-2,0.5c-0.4,1.2,1,1.7,1.7,1c0.8-0.7,2.1-0.7,2.4-0.2c0.1,0.2,0.3,0.7-0.8,1.6
	c-0.3,0.3-2.2,1.4-0.9,2.7c0.5,0.4,1.7,0.3,2-1.5c0.2-1.3,0.6-1.9,1.1-2.1c0.2-0.1,1-0.3,1.4,0c0.1,0.1,0.4,0.3,0.4,0.3
	c0.7,0.5,1.5-0.1,1.4-0.8c-0.2-0.8-0.9-0.6-1.4-0.4c-0.4,0.2-0.8,0-0.8,0c-0.3-0.2-0.4-0.5,0.1-0.8c2.3-1.1,2.7-2.3,2.7-2.3
	c-1.1,0.1-2-0.2-2-0.2s-2,2.7-3.6,2c-0.5-0.2-0.7-1.1-0.7-1.4c0-0.8-0.9-1.2-1.4-0.7c-0.5,0.6,0.1,1.1,0.6,1.3
	c0.3,0.1,0.7,0.5,0.6,0.8C189.8,107.2,189.5,107.1,189.3,107.1z"/>
<path class="st3" d="M188.5,104.1c0,0-0.4,0.2-0.5,0.6c0,0-0.8-0.6-1.4,0.3C186.7,105,186.8,103.5,188.5,104.1z"/>
<path class="st3" d="M186.5,107.9c0,0-0.2,0.4,0.2,1c0,0-1,0.4-0.3,1.7C186.4,110.6,184.9,109.2,186.5,107.9z"/>
<path class="st3" d="M188.6,112.4c0,0,0,0.5,0.5,0.9c0,0-0.8,0.7,0.3,1.7C189.4,115,187.5,114.2,188.6,112.4z"/>
<path class="st3" d="M196.6,109.4c0.3,0.1,0.5,0.4,0.4,1.1c0,0,1-1-0.4-1.8c0,0-0.1-0.1-0.1-0.1c0,0,0.2,0.4-0.1,0.7
	C196.4,109.3,196.5,109.3,196.6,109.4z"/>
<path class="st3" d="M212.8,109.3c-0.3,0.1-0.5,0.4-0.4,1.1c0,0-1-1,0.4-1.8c0,0,0.1-0.1,0.1-0.1c0,0-0.2,0.4,0.1,0.7
	C213,109.2,212.9,109.2,212.8,109.3z"/>
<path class="st3" d="M204.8,82.2c0.7-0.2,1.1-0.7,1.1-0.7c0.5,0.6,1.9,1,2.6,1c1.7,4.5,5.4,7.2,2,13.3c-3.6,6.3-6.2,7.2-1.2,11.5
	c0,0-3.2,0.9-3.9-1.9c0,0,0.2,3-0.6,3.8c-0.7-0.8-0.6-3.8-0.6-3.8c-0.7,2.8-3.9,1.9-3.9,1.9c5-4.3,2.4-5.2-1.2-11.5
	c-3.4-6.1,0.3-8.8,2-13.3c0.8-0.1,2.1-0.4,2.7-1C203.8,81.5,204.1,82,204.8,82.2z"/>
<path class="st3" d="M206.5,109.1c1.2,0.8,3.2,0.1,3.2,0.1s0,0.5,1.7,1.3c2.7,1.1,5.5,3.9,1.8,8c0,0,1.5-4.7-0.8-5.8c0,0-2,2-5-2
	C206.8,110.1,206.5,109.1,206.5,109.1z"/>
<path class="st3" d="M213.1,92.7c0.1,1.2,0.3,1.3,1.4,1.8c0,0,0.4-0.4,0.7-0.8c0.7-1.3-0.5-3.3-0.5-3.3c1.3,1.5,3.1,1,3.1,1
	c-0.1-1.3-1.9-2.5-1.9-2.5c1.6,0.3,2.9-0.6,2.9-0.6c-0.5-0.9-2.2-1.9-2.2-1.9c1.7-0.1,2.8-1.1,2.8-1.1c-0.5-0.7-2.4-1.6-2.4-1.6
	c0.9-0.5,1.8-2.1,1.8-2.1c-1.3-0.7-2.7-0.5-2.7-0.5c2.3-1.7-0.2-6.4-0.2-6.4c0.4,7-5.1,5.2-4.6,8.8c0.3,3,3.6,0.8,3.6,0.8
	c0.6,4.1-1.8,4.5-1.8,4.5s0.1,1,0.2,2C213.2,92,213.1,92.1,213.1,92.7z"/>
<path class="st3" d="M220.3,102.9c-7.5-0.2-8.8-5.9-8.8-5.9c0.7-1.1,0.8-1.6,0.8-1.6s0.1-0.3,0.1-0.3c0.5,0.5,2.4,1.2,2.4,1.2
	s1.1-0.9,1.4-1.3c0.7-1,0.8-1.8,0.8-1.8c1.3,0,2.4-1.1,2.4-1.1C219.5,91,219,90,219,90c0.9-0.4,1.8-1.3,1.8-1.3
	c-0.6-1.3-1-1.7-1-1.7c1.4-1.1,1.5-1.8,1.5-1.8c-0.4-1-1.7-1.9-1.7-1.9c0.6-0.8,1.1-2.2,1.1-2.2c-1-1-2-1.4-2-1.4
	c0.2-0.6,0.1-1.2,0.1-1.8c0,0,8.6-4.5,9.5-7.4c0,0,0.4,2.6,0.2,4.2c-0.1,1.5-2.4,3.9-7.9,7.6c3.4-0.5,8-2.3,9-4.2c0,0,0,2.6-0.6,4.2
	c-0.5,1.3-2.9,2.2-8.3,4.8c2.7,1.5,7.4-0.2,8.8-1.5c0,0-0.8,2.3-1.6,3.7c-0.6,0.9-2.8,2.4-8,1.6c1.9,2.4,5.6,4.2,8.2,3.1
	c0,0-0.3,2.3-1.8,3c-1.1,0.5-3.5,0.8-7.3-2.1c2.3,5.7,7.9,3.9,7.9,3.9s-1.3,2.3-2.8,3c-1.3,0.7-4,0.1-8.4-4.6
	C215.7,97.3,216,101.5,220.3,102.9z"/>
<path class="st3" d="M210.6,98.6c0,0-1.5,2.1-1.9,3.4c0,0,2.9,2.5,2.4,5.3c0,0,1-2,0.3-3.5c-0.1-0.1-0.4-1-0.4-1s2.5,1.2,4.2,0.3
	c0,0-1.8,0.2-3.8-2.9C210.4,98.5,210.6,98.6,210.6,98.6z"/>
<path class="st3" d="M220.3,107.1c0.3,0,1.7-0.5,2,0.5c0.4,1.2-1,1.7-1.7,1c-0.8-0.7-2.1-0.7-2.4-0.2c-0.1,0.2-0.3,0.7,0.8,1.6
	c0.3,0.3,2.2,1.4,0.9,2.7c-0.5,0.4-1.7,0.3-2-1.5c-0.2-1.3-0.6-1.9-1.1-2.1c-0.2-0.1-1-0.3-1.4,0c-0.1,0.1-0.4,0.3-0.4,0.3
	c-0.7,0.5-1.5-0.1-1.4-0.8c0.2-0.8,0.9-0.6,1.4-0.4c0.4,0.2,0.8,0,0.8,0c0.3-0.2,0.4-0.5-0.1-0.8c-2.3-1.1-2.7-2.3-2.7-2.3
	c1.1,0.1,2-0.2,2-0.2s2,2.7,3.6,2c0.5-0.2,0.7-1.1,0.7-1.4c0-0.8,0.9-1.2,1.4-0.7c0.5,0.6-0.1,1.1-0.6,1.3c-0.3,0.1-0.7,0.5-0.6,0.8
	C219.8,107.2,220.1,107.1,220.3,107.1z"/>
<path class="st3" d="M221.1,104.1c0,0,0.4,0.2,0.5,0.6c0,0,0.8-0.6,1.4,0.3C222.9,105,222.8,103.5,221.1,104.1z"/>
<path class="st3" d="M223.1,107.9c0,0,0.2,0.4-0.2,1c0,0,1,0.4,0.3,1.7C223.2,110.6,224.7,109.2,223.1,107.9z"/>
<path class="st3" d="M221,112.4c0,0,0,0.5-0.5,0.9c0,0,0.8,0.7-0.3,1.7C220.2,115,222.1,114.2,221,112.4z"/>
<path class="st3" d="M204.8,111.5c0.2-0.1,0.5-0.2,0.7-0.4c0,0,1.9,4.5,6.2,4.1c0,0-0.3,1-2,1.1c0,0,2.9,1.4,1.2,2.7
	c-1.1,0.9-2-1.6-2-1.6s-0.1,2.3-2.1,2.3c0,0,3-1.7-0.1-5.8c0.3,2.8-0.7,5.5-2,5.5l0,0c-1.3,0-2.3-2.6-2-5.5
	c-3.1,4.1-0.1,5.8-0.1,5.8c-2,0-2.1-2.3-2.1-2.3s-0.9,2.5-2,1.6c-1.7-1.4,1.2-2.7,1.2-2.7c-1.7-0.1-2-1.1-2-1.1
	c4.3,0.5,6.2-4.1,6.2-4.1C204.3,111.3,204.6,111.4,204.8,111.5z"/>
<path class="st4" d="M204.4,73.8l0-0.1l-0.1-0.5l0-0.1l-0.1,0l-2.3,0.9l0,0l1.2-0.1c0,0.1-0.1,0.2-0.1,0.2c0,0.3,0.2,0.5,0.5,0.5
	c0.3,0,0.5-0.2,0.5-0.5c0-0.1,0-0.2-0.1-0.3l0.4,0L204.4,73.8z"/>
<path class="st4" d="M210.8,90.1c-0.4-0.8-0.9-1.1-1.3-1.2c0-0.1-0.1-0.2-0.2-0.4c-0.5-0.8-1.4-0.9-2-0.6c-0.2,0.1-0.4,0.2-0.5,0.2
	l0.1-0.2c0,0,0,0,0,0c0.1-0.1,0.2-0.3,0.3-0.6c0.2-0.6,0.1-1.5-0.6-2c-0.1-0.1-0.2-0.1-0.4-0.2c-0.1-0.4-0.4-0.9-1.2-1.3l-0.2-0.1
	l-0.2,0.1c-0.8,0.4-1.1,0.9-1.2,1.3c-0.1,0-0.2,0.1-0.4,0.2c-0.8,0.5-0.9,1.4-0.6,2c0.1,0.4,0.2,0.5,0.3,0.6c0,0,0,0,0,0l0.2,0.2
	c-0.1-0.1-0.3-0.1-0.5-0.2c-0.6-0.2-1.5-0.1-2,0.6c-0.1,0.1-0.1,0.2-0.2,0.4c-0.4,0.1-0.9,0.4-1.3,1.2l-0.1,0.2l0.1,0.2
	c0.4,0.8,0.9,1.1,1.3,1.2c0,0.1,0.1,0.2,0.2,0.4c0.5,0.8,1.4,0.9,2,0.6c0.4-0.1,0.5-0.2,0.6-0.3c0,0,0,0,0,0c0,0,0.1-0.1,0.2-0.2
	v2.1l-0.2-0.2l-0.3,0.4c0,0,0,0,0,0c-0.1,0.1-0.2,0.3-0.3,0.6c-0.2,0.6-0.1,1.5,0.6,2c0.1,0.1,0.2,0.1,0.4,0.2
	c0.1,0.4,0.4,0.9,1.2,1.3l0.2,0.1l0.2-0.1c0.8-0.4,1.1-0.9,1.2-1.3c0.1,0,0.2-0.1,0.4-0.2c0.8-0.5,0.9-1.4,0.6-2
	c-0.1-0.4-0.2-0.5-0.3-0.6c0,0,0,0,0,0c0,0-0.3-0.4-0.3-0.4l-0.2,0.2v-2.1l0.2,0.2c0,0,0,0,0,0c0.1,0.1,0.3,0.2,0.6,0.3
	c0.6,0.2,1.5,0.1,2-0.6c0.1-0.1,0.1-0.2,0.2-0.4c0.4-0.1,0.9-0.4,1.3-1.2l0.1-0.2L210.8,90.1z"/>
<path class="st3" d="M209.5,90.2c0,0-0.5-0.6-1.1-0.5c0.1-0.2,0.1-0.4-0.1-0.7c-0.3-0.4-0.6-0.3-0.8-0.3l-0.1,0l0.1,0.1
	c0,0,0.1,0.1,0.1,0.2c0,0.1,0,0.3-0.2,0.5c-0.1,0.1-0.5,0.1-0.6,0.1h-1.5c0-0.4,0-2.2,0-2.2c0-0.1,0-0.4,0.1-0.6
	c0.2-0.2,0.4-0.3,0.5-0.2c0.1,0,0.2,0.1,0.2,0.1l0.1,0.1l0-0.1c0.1-0.2,0.1-0.6-0.3-0.8c-0.2-0.2-0.5-0.1-0.7-0.1
	c0.2-0.6-0.5-1.1-0.5-1.1c0,0,0,0,0,0h0h0l0,0c0,0-0.6,0.5-0.5,1.1c-0.2-0.1-0.4-0.1-0.7,0.1c-0.4,0.3-0.3,0.6-0.3,0.8
	c0,0,0,0.1,0,0.1l0.1-0.1c0,0,0.1-0.1,0.2-0.1c0.1,0,0.3,0,0.5,0.2c0.1,0.1,0.1,0.4,0.1,0.5l0,0v0v2.2c-0.3,0-1.5,0-1.5,0
	c-0.1,0-0.4,0-0.6-0.1c-0.2-0.2-0.3-0.4-0.2-0.5c0-0.1,0.1-0.2,0.1-0.2l0.1-0.1l-0.1,0c-0.2-0.1-0.6-0.1-0.8,0.3
	c-0.2,0.2-0.1,0.5-0.1,0.7c-0.6-0.2-1.1,0.5-1.1,0.5c0,0,0,0,0,0v0v0l0,0c0,0,0.5,0.6,1.1,0.5c-0.1,0.2-0.1,0.4,0.1,0.7
	c0.3,0.4,0.6,0.3,0.8,0.3c0,0,0.1,0,0.1,0l-0.1-0.1c0,0-0.1-0.1-0.1-0.2c0-0.1,0-0.3,0.2-0.5c0.1-0.1,0.4-0.1,0.5-0.1l0,0h0h1.5v4
	c0,0,0,0,0,0v0c0,0.1,0,0.4-0.1,0.5c-0.2,0.2-0.4,0.3-0.5,0.2c-0.1,0-0.2-0.1-0.2-0.1l-0.1-0.1l0,0.1c-0.1,0.2-0.1,0.6,0.3,0.8
	c0.2,0.2,0.5,0.1,0.7,0.1c-0.2,0.6,0.5,1.1,0.5,1.1c0,0,0,0,0,0h0h0l0,0c0,0,0.6-0.5,0.5-1.1c0.2,0.1,0.4,0.1,0.7-0.1
	c0.4-0.3,0.3-0.6,0.3-0.8l0-0.1l-0.1,0.1c0,0-0.1,0.1-0.2,0.1c-0.1,0-0.3,0-0.5-0.2c-0.1-0.1-0.1-0.5-0.1-0.6c0,0,0-3.4,0-4h1.5
	c0,0,0,0,0,0l0,0c0.1,0,0.4,0,0.5,0.1c0.2,0.2,0.3,0.4,0.2,0.5c0,0.1-0.1,0.2-0.1,0.2l-0.1,0.1l0.1,0c0.2,0.1,0.6,0.1,0.8-0.3
	c0.2-0.2,0.1-0.5,0.1-0.7C209.1,91,209.5,90.3,209.5,90.2C209.5,90.3,209.6,90.3,209.5,90.2L209.5,90.2L209.5,90.2L209.5,90.2z"/>
<g>
	<path class="st2" d="M44.1,98.2l0.2,0.2c0.7,0.5,1.5,1,2.4,1c0.4,0,1-0.2,1-0.6c0-0.5-0.5-0.5-0.9-0.6L46,98
		c-1.5-0.3-2.8-1.1-2.8-2.8c0-2.5,2.3-3.9,4.6-3.9c1.2,0,2.3,0.3,3.3,0.9l-1,2.7c-0.7-0.4-1.4-0.8-2.2-0.8c-0.3,0-0.8,0.1-0.8,0.6
		c0,0.4,0.5,0.4,0.8,0.5l0.9,0.2c1.6,0.4,2.8,1.2,2.8,3c0,2.5-2.3,3.8-4.6,3.8c-1.3,0-2.9-0.4-4.1-1L44.1,98.2z"/>
	<path class="st2" d="M64.8,95.8c-0.6-0.6-1.4-1.1-2.3-1.1c-1.1,0-2.1,0.9-2.1,2.1c0,1.2,1,2.1,2.1,2.1c0.9,0,1.6-0.4,2.2-1
		l-0.1,3.9c-0.6,0.3-2,0.4-2.7,0.4c-3,0-5.4-2.3-5.4-5.3c0-3.1,2.4-5.5,5.5-5.5c0.9,0,1.8,0.2,2.6,0.4L64.8,95.8z"/>
	<path class="st2" d="M70.4,91.5h3.8V102h-3.8V91.5z"/>
	<path class="st2" d="M80.1,91.5h7.1v2.9H84v1h3v2.7h-3v1h3.3v2.9h-7.2V91.5z"/>
	<path class="st2" d="M93.1,91.5h3.7l3.4,5.9h0.1c-0.2-0.9-0.3-1.8-0.3-2.7v-3.2h3.7V102H100l-3.4-5.5h-0.1c0.1,0.7,0.2,1.4,0.2,2.1
		v3.4h-3.7V91.5z"/>
	<path class="st2" d="M117.3,95.8c-0.6-0.6-1.4-1.1-2.3-1.1c-1.1,0-2.1,0.9-2.1,2.1c0,1.2,1,2.1,2.1,2.1c0.9,0,1.6-0.4,2.2-1
		l-0.1,3.9c-0.6,0.3-2,0.4-2.7,0.4c-3,0-5.4-2.3-5.4-5.3c0-3.1,2.4-5.5,5.5-5.5c0.9,0,1.8,0.2,2.6,0.4L117.3,95.8z"/>
	<path class="st2" d="M122.8,91.5h7.1v2.9h-3.2v1h3v2.7h-3v1h3.3v2.9h-7.2V91.5z"/>
</g>
</svg>
